<svg width="28" height="35" viewBox="0 0 28 35" fill="none" xmlns="http://www.w3.org/2000/svg">
<path d="M11.4589 6.29617C10.7181 6.29617 10.1844 6.81955 10.1844 7.54213C10.1844 8.2647 10.722 8.78808 11.4589 8.78808C12.1997 8.78808 12.7334 8.2647 12.7334 7.54213C12.7374 6.82346 12.1997 6.29617 11.4589 6.29617ZM27.1477 10.0614C26.598 9.52238 25.8452 9.22163 25.0287 9.22163C24.8734 9.22163 24.734 9.23725 24.6026 9.26069V9.22163H24.4592C24.2401 8.02645 23.7183 6.85861 22.9417 5.80795C22.1969 4.80415 21.229 3.93706 20.1218 3.27307L21.1215 1.87479V1.7459C21.1215 1.71465 21.1374 1.65607 21.1494 1.59748C21.1733 1.50374 21.2051 1.38266 21.2051 1.24986C21.2051 0.527285 20.6674 0.00390575 19.9306 0.00390575C19.5403 0.00390575 19.1539 0.226537 18.899 0.605401L17.732 2.24975C16.5371 1.86698 15.2467 1.66388 13.996 1.66388C12.7494 1.66388 11.4589 1.86698 10.26 2.24975L9.09701 0.601495C8.83414 0.226537 8.45576 0 8.06145 0C7.32063 0 6.78691 0.523379 6.78691 1.24595C6.78691 1.48812 6.88649 1.7459 7.05377 1.92557L7.95391 3.18714C6.81081 3.85113 5.82304 4.72604 5.07824 5.72983C4.30555 6.78049 3.8037 7.94833 3.6165 9.14351H3.39744V9.18257C3.26999 9.15913 3.13058 9.14351 2.97127 9.14351C2.16273 9.14351 1.40996 9.43645 0.85633 9.97545C0.306686 10.5145 0 11.2487 0 12.0455V21.2242C0 22.0171 0.29872 22.7514 0.852347 23.2904C1.40199 23.8294 2.15875 24.1301 2.97127 24.1301C3.1266 24.1301 3.266 24.1145 3.39744 24.0911V27.743C3.39744 28.8835 4.34936 29.817 5.51636 29.817H6.78691V32.0941C6.78691 32.887 7.08563 33.6212 7.63926 34.1602C8.1889 34.6993 8.94566 35 9.75818 35C10.5667 35 11.3195 34.7071 11.8731 34.1681C12.4228 33.6291 12.7294 32.8948 12.7294 32.098V29.8248H15.2706V32.0941C15.2706 32.887 15.5693 33.6212 16.1229 34.1602C16.6725 34.6993 17.4293 35 18.2418 35C19.0543 35 19.8031 34.7071 20.3568 34.1563C20.9064 33.6173 21.2131 32.883 21.2131 32.0863V29.8131H22.4836C23.6506 29.8131 24.6026 28.8835 24.6026 27.7391V24.1692C24.73 24.1926 24.8694 24.2082 25.0287 24.2082C25.8373 24.2082 26.59 23.9153 27.1437 23.3763C27.6933 22.8373 28 22.103 28 21.3062V12.1276C27.996 11.3347 27.6973 10.6043 27.1477 10.0614ZM3.40142 21.3101C3.40142 21.5757 3.24609 21.7241 2.97525 21.7241C2.70441 21.7241 2.54908 21.5757 2.54908 21.3101V12.1276C2.54908 11.862 2.70441 11.7135 2.97525 11.7135C3.24609 11.7135 3.40142 11.862 3.40142 12.1276V21.3101ZM8.62304 5.81185C10.1166 4.74556 12.0205 4.15969 14 4.15969C15.9795 4.15969 17.8834 4.74947 19.377 5.81966C20.6674 6.74534 21.5357 7.93661 21.8743 9.23725H6.12575C6.4643 7.93271 7.34054 6.73753 8.62304 5.81185ZM10.1883 32.1644C10.1644 32.3831 10.0131 32.5042 9.77013 32.5042C9.49929 32.5042 9.34396 32.3558 9.34396 32.0902V29.817H10.1883V32.1644ZM18.2458 32.5042C17.975 32.5042 17.8196 32.3558 17.8196 32.0902V29.817H18.664V32.1644C18.6401 32.3831 18.4927 32.5042 18.2458 32.5042ZM22.0615 27.3251H5.94651V11.7174H22.0615V27.3251ZM25.4549 21.3101C25.4549 21.5757 25.2996 21.7241 25.0287 21.7241C24.7579 21.7241 24.6026 21.5757 24.6026 21.3101V12.1276C24.6026 11.862 24.7579 11.7135 25.0287 11.7135C25.2996 11.7135 25.4549 11.862 25.4549 12.1276V21.3101ZM16.5491 6.29617C15.8082 6.29617 15.2745 6.81955 15.2745 7.54213C15.2745 8.2647 15.8122 8.78808 16.5491 8.78808C17.2899 8.78808 17.8276 8.2647 17.8276 7.53822C17.8236 6.81174 17.2939 6.29617 16.5491 6.29617Z" fill="#B8B9B8"/>
</svg>
