<svg width="32" height="32" viewBox="0 0 32 32" fill="none" xmlns="http://www.w3.org/2000/svg">
<path d="M15.9999 2.38199e-05C11.901 2.38199e-05 7.80214 1.56001 4.68065 4.6813C-1.14632 10.5092 -1.533 19.7465 3.52192 26.0277C3.24166 25.2768 3.18301 24.4611 3.35297 23.6778C3.52293 22.8944 3.91434 22.1764 4.48064 21.6091C5.11099 20.9797 5.92578 20.5679 6.80641 20.4336C7.68705 20.2993 8.58757 20.4495 9.37689 20.8625C8.1566 19.1927 7.61084 17.1242 7.84852 15.0698C8.0862 13.0154 9.08984 11.1262 10.6592 9.77912C12.2285 8.43205 14.2481 7.72623 16.3149 7.8025C18.3817 7.87876 20.3438 8.73151 21.8095 10.1906C22.5401 10.9212 23.5311 11.3316 24.5643 11.3316C25.5976 11.3316 26.5885 10.9212 27.3191 10.1906C28.0498 9.46 28.4602 8.46913 28.4602 7.43594C28.4602 6.40275 28.0498 5.41188 27.3191 4.6813C25.8337 3.194 24.0691 2.0148 22.1266 1.21144C20.1841 0.408079 18.102 -0.0036079 15.9999 2.38199e-05ZM28.4805 5.97462C28.7604 6.72553 28.8186 7.541 28.6485 8.32407C28.4783 9.10714 28.0868 9.82486 27.5205 10.3919C26.8901 11.0213 26.0754 11.4332 25.1947 11.5675C24.3141 11.7017 23.4136 11.5515 22.6242 11.1386C23.785 12.7213 24.3411 14.6672 24.192 16.6243C24.0428 18.5814 23.1982 20.4205 21.8109 21.8091C21.0802 22.5395 20.6697 23.5302 20.6696 24.5633C20.6695 25.0748 20.7702 25.5813 20.9659 26.0539C21.1616 26.5265 21.4485 26.956 21.8102 27.3177C22.1719 27.6795 22.6013 27.9664 23.0739 28.1622C23.5464 28.358 24.053 28.4589 24.5645 28.4589C25.5977 28.459 26.5885 28.0488 27.3191 27.3184C33.1461 21.4918 33.5328 12.2546 28.4792 5.97462H28.4805ZM7.43412 20.6678C6.92237 20.6674 6.41556 20.768 5.9427 20.9636C5.46983 21.1593 5.04018 21.4463 4.67831 21.8081C4.31645 22.17 4.02947 22.5996 3.83379 23.0724C3.63811 23.5453 3.53757 24.052 3.53792 24.5637C3.53757 25.0755 3.63811 25.5822 3.83379 26.0551C4.02947 26.5279 4.31645 26.9575 4.67831 27.3194C5.04018 27.6812 5.46983 27.9682 5.9427 28.1639C6.41556 28.3595 6.92237 28.4601 7.43412 28.4597C7.94588 28.4601 8.45268 28.3595 8.92555 28.1639C9.39842 27.9682 9.82807 27.6812 10.1899 27.3194C10.5518 26.9575 10.8388 26.5279 11.0345 26.0551C11.2301 25.5822 11.3307 25.0755 11.3303 24.5637C11.3308 24.052 11.2305 23.5452 11.035 23.0723C10.8395 22.5994 10.5526 22.1697 10.1909 21.8077C9.82914 21.4458 9.39958 21.1586 8.92678 20.9628C8.45398 20.767 7.94721 20.6663 7.43546 20.6665L7.43412 20.6678ZM20.8615 22.6238C19.4511 23.6575 17.7479 24.2149 15.9992 24.2149C14.2505 24.2149 12.5474 23.6575 11.137 22.6238C11.5495 23.4131 11.6995 24.3135 11.5653 25.194C11.431 26.0745 11.0194 26.8892 10.3903 27.5197C9.82297 28.086 9.10483 28.4774 8.32138 28.6471C7.53794 28.8168 6.72222 28.7578 5.97138 28.477C11.8063 33.1743 20.1921 33.1743 26.0257 28.477C25.2751 28.7575 24.4596 28.8164 23.6765 28.6467C22.8933 28.4769 22.1754 28.0858 21.6082 27.5197C20.9787 26.8894 20.5669 26.0747 20.4326 25.1941C20.2983 24.3135 20.4485 23.413 20.8615 22.6238Z" fill="#B8B9B8"/>
</svg>
