<svg width="34" height="35" viewBox="0 0 34 35" fill="none" xmlns="http://www.w3.org/2000/svg">
<path d="M14.0587 0.000533534L3.46152 5.05707C2.20275 5.7637 2.62997 6.94338 4.36708 8.00465L12.5145 12.9448C12.6965 13.8626 12.083 14.8894 11.1588 15.0598C8.29503 13.3475 5.47279 11.5598 2.5826 9.89698C-0.664021 8.83331 0.0735454 11.9741 0.0687686 13.7955L0.716654 22.7779C0.89965 24.123 2.11805 24.1884 3.66699 23.2291L10.2798 19.1688C11.052 19.4732 11.8087 20.3587 11.7831 21.2392L3.84797 26.1346C3.19537 26.7055 3.12271 27.965 3.95655 28.4061C7.04353 30.5984 10.1331 32.7945 13.248 34.941C14.2188 35.2348 15.3466 34.3892 15.268 33.3387L15.4306 23.1235C16.0821 22.3461 17.3897 22.381 18.1022 23.1261L17.9968 33.199C18.1352 35.2296 20.2933 35.0063 21.6968 33.8944L29.7576 28.294C31.2814 26.9207 29.9958 26.0809 28.9332 25.4564L22.0517 21.5711C21.893 20.6342 22.3608 19.4606 23.3512 19.2505L31.2561 23.8242C31.9106 24.1007 33.0189 24.0815 32.9945 23.0639C33.4127 19.0471 33.7948 14.5859 34 10.9497C33.6446 10.0031 32.3531 9.62409 31.5245 10.1601L22.7864 15.1287C22.2105 14.6585 20.755 13.4756 21.9966 12.8419L30.3064 8.09803C31.9844 6.90448 30.659 5.33611 29.4096 4.6869L20.1323 0.140328C18.4021 -0.186292 18.2695 0.749068 18.1764 1.8383L18.2198 10.3754C17.5223 11.0065 16.3411 11.0133 15.6789 10.3356L15.6598 1.36205C15.442 0.667583 14.8199 -0.0204528 14.0587 0.000465174V0.000533534ZM12.5777 4.69962C12.6063 5.98751 12.6349 7.27547 12.6636 8.56342L9.03165 6.35966C10.2121 5.73191 11.3924 5.10376 12.5728 4.47595L12.5777 4.69962ZM25.117 6.55332L21.342 8.67861L21.4715 4.67248L25.117 6.55332ZM19.2625 16.7443C19.5348 16.9778 19.1485 17.2333 18.9665 17.3486C18.3441 17.9137 18.1261 18.7928 18.1185 19.6131C17.6135 18.8646 16.4388 18.5846 15.7735 19.2644C15.5313 19.451 15.4524 18.9942 15.4765 18.7999C15.405 17.9941 14.8589 17.3434 14.2356 16.8953C14.9109 16.4907 15.5065 15.8521 15.575 15.0206C15.7997 14.7555 16.0651 15.02 16.3417 15.1924C17.0577 15.4064 17.8218 15.2127 18.4733 14.8837C18.0754 15.8178 18.6334 16.513 19.2625 16.7443ZM7.35294 17.3643L3.90455 19.2753L3.68401 15.1231L7.35294 17.3643ZM29.9368 19.4222L26.2959 17.5367L30.1017 15.3793L29.9368 19.4222ZM11.5626 29.3747L8.20696 27.2131L11.628 24.8516L11.5626 29.3747ZM25.319 27.1699L21.8938 29.4367L21.9704 25.0401L25.319 27.1699Z" fill="#B8B9B8"/>
</svg>
